<svg width="24" height="25" viewBox="0 0 24 25" fill="none" xmlns="http://www.w3.org/2000/svg">
<path d="M12 9.25C11.138 9.25 10.3114 9.59241 9.7019 10.2019C9.09241 10.8114 8.75 11.638 8.75 12.5C8.75 13.362 9.09241 14.1886 9.7019 14.7981C10.3114 15.4076 11.138 15.75 12 15.75C12.862 15.75 13.6886 15.4076 14.2981 14.7981C14.9076 14.1886 15.25 13.362 15.25 12.5C15.25 11.638 14.9076 10.8114 14.2981 10.2019C13.6886 9.59241 12.862 9.25 12 9.25Z" fill="#CEC7C7"/>
<path fill-rule="evenodd" clip-rule="evenodd" d="M6.76994 3.58194C10.246 3.19664 13.7539 3.19664 17.2299 3.58194C19.1289 3.79394 20.6599 5.28894 20.8829 7.19494C21.2952 10.7196 21.2952 14.2803 20.8829 17.8049C20.6599 19.7109 19.1289 21.2059 17.2309 21.4189C13.7546 21.8043 10.2463 21.8043 6.76994 21.4189C4.87094 21.2059 3.33994 19.7109 3.11694 17.8059C2.70467 14.281 2.70467 10.7199 3.11694 7.19494C3.33994 5.28894 4.87094 3.79394 6.76994 3.58194ZM16.9999 6.49994C16.7347 6.49994 16.4804 6.6053 16.2928 6.79284C16.1053 6.98037 15.9999 7.23473 15.9999 7.49994C15.9999 7.76516 16.1053 8.01951 16.2928 8.20705C16.4804 8.39459 16.7347 8.49994 16.9999 8.49994C17.2652 8.49994 17.5195 8.39459 17.7071 8.20705C17.8946 8.01951 17.9999 7.76516 17.9999 7.49994C17.9999 7.23473 17.8946 6.98037 17.7071 6.79284C17.5195 6.6053 17.2652 6.49994 16.9999 6.49994ZM7.24994 12.4999C7.24994 11.2402 7.75039 10.032 8.64119 9.14119C9.53198 8.25039 10.7402 7.74994 11.9999 7.74994C13.2597 7.74994 14.4679 8.25039 15.3587 9.14119C16.2495 10.032 16.7499 11.2402 16.7499 12.4999C16.7499 13.7597 16.2495 14.9679 15.3587 15.8587C14.4679 16.7495 13.2597 17.2499 11.9999 17.2499C10.7402 17.2499 9.53198 16.7495 8.64119 15.8587C7.75039 14.9679 7.24994 13.7597 7.24994 12.4999Z" fill="#CEC7C7"/>
</svg>
