<svg width="25" height="25" viewBox="0 0 25 25" fill="none" xmlns="http://www.w3.org/2000/svg">
<path d="M4.16665 20.8332C3.59373 20.8332 3.10311 20.629 2.69477 20.2207C2.28644 19.8123 2.08262 19.3221 2.08331 18.7498V6.24984C2.08331 5.67692 2.28748 5.1863 2.69581 4.77796C3.10415 4.36963 3.59443 4.16581 4.16665 4.16651H20.8333C21.4062 4.16651 21.8969 4.37067 22.3052 4.77901C22.7135 5.18734 22.9173 5.67762 22.9167 6.24984V18.7498C22.9167 19.3228 22.7125 19.8134 22.3041 20.2217C21.8958 20.63 21.4055 20.8339 20.8333 20.8332H4.16665ZM12.5 13.5415L4.16665 8.33317V18.7498H20.8333V8.33317L12.5 13.5415ZM12.5 11.4582L20.8333 6.24984H4.16665L12.5 11.4582ZM4.16665 8.33317V6.24984V18.7498V8.33317Z" fill="#777777"/>
</svg>
