<svg width="25" height="25" viewBox="0 0 25 25" fill="none" xmlns="http://www.w3.org/2000/svg">
<path d="M12.5 2.0835C7.91669 2.0835 4.16669 5.8335 4.16669 10.4168C4.16669 16.0418 11.4584 22.396 11.7709 22.7085C11.9792 22.8127 12.2917 22.9168 12.5 22.9168C12.7084 22.9168 13.0209 22.8127 13.2292 22.7085C13.5417 22.396 20.8334 16.0418 20.8334 10.4168C20.8334 5.8335 17.0834 2.0835 12.5 2.0835ZM12.5 20.521C10.3125 18.4377 6.25002 13.9585 6.25002 10.4168C6.25002 6.97933 9.06252 4.16683 12.5 4.16683C15.9375 4.16683 18.75 6.97933 18.75 10.4168C18.75 13.8543 14.6875 18.4377 12.5 20.521ZM12.5 6.25016C10.2084 6.25016 8.33335 8.12516 8.33335 10.4168C8.33335 12.7085 10.2084 14.5835 12.5 14.5835C14.7917 14.5835 16.6667 12.7085 16.6667 10.4168C16.6667 8.12516 14.7917 6.25016 12.5 6.25016ZM12.5 12.5002C11.3542 12.5002 10.4167 11.5627 10.4167 10.4168C10.4167 9.271 11.3542 8.3335 12.5 8.3335C13.6459 8.3335 14.5834 9.271 14.5834 10.4168C14.5834 11.5627 13.6459 12.5002 12.5 12.5002Z" fill="#777777"/>
</svg>
